<svg xmlns="http://www.w3.org/2000/svg" version="1.1" xmlns:xlink="http://www.w3.org/1999/xlink" width="1000" height="1000"><style>
    #light-icon {
      display: inline;
    }
    #dark-icon {
      display: none;
    }

    @media (prefers-color-scheme: dark) {
      #light-icon {
        display: none;
      }
      #dark-icon {
        display: inline;
      }
    }
  </style><g id="light-icon"><svg xmlns="http://www.w3.org/2000/svg" version="1.1" xmlns:xlink="http://www.w3.org/1999/xlink" width="1000" height="1000"><g><g transform="matrix(2,0,0,2,0,44)"><svg xmlns="http://www.w3.org/2000/svg" version="1.1" xmlns:xlink="http://www.w3.org/1999/xlink" width="500" height="456"><svg width="500" height="456" viewBox="0 0 500 456" fill="none" xmlns="http://www.w3.org/2000/svg">
<path d="M375 56.9658C409.518 56.9658 437.5 84.9481 437.5 119.466C437.5 153.984 409.518 181.966 375 181.966C365.049 181.966 354.829 185.73 349.858 194.351L308.875 265.432C299.978 280.862 304.068 300.17 309.516 317.128C311.454 323.159 312.5 329.588 312.5 336.263C312.5 370.78 284.518 398.763 250 398.763C215.482 398.763 187.5 370.78 187.5 336.263C187.5 329.589 188.546 323.159 190.483 317.128C195.931 300.171 200.021 280.862 191.124 265.432L150.14 194.35C145.17 185.729 134.951 181.966 125 181.966C90.4822 181.966 62.5 153.984 62.5 119.466C62.5001 84.9481 90.4823 56.9658 125 56.9658C159.518 56.9658 187.5 84.9481 187.5 119.466C187.5 126.14 186.454 132.57 184.516 138.6C179.068 155.558 174.979 174.867 183.875 190.297L224.858 261.377C229.829 269.998 240.049 273.763 250 273.763C259.951 273.763 270.17 269.998 275.14 261.378L316.124 190.297C325.021 174.866 320.931 155.558 315.484 138.6C313.546 132.57 312.5 126.14 312.5 119.466C312.5 84.9482 340.482 56.9659 375 56.9658Z" fill="black"></path>
</svg></svg></g></g></svg></g><g id="dark-icon"><svg xmlns="http://www.w3.org/2000/svg" version="1.1" xmlns:xlink="http://www.w3.org/1999/xlink" width="1000" height="1000"><g><g transform="matrix(2,0,0,2,0,44)"><svg xmlns="http://www.w3.org/2000/svg" version="1.1" xmlns:xlink="http://www.w3.org/1999/xlink" width="500" height="456"><svg width="500" height="456" viewBox="0 0 500 456" fill="none" xmlns="http://www.w3.org/2000/svg">
<path d="M375 56.9658C409.518 56.9658 437.5 84.9481 437.5 119.466C437.5 153.984 409.518 181.966 375 181.966C365.049 181.966 354.829 185.73 349.858 194.351L308.875 265.432C299.978 280.862 304.068 300.17 309.516 317.128C311.454 323.159 312.5 329.588 312.5 336.263C312.5 370.78 284.518 398.763 250 398.763C215.482 398.763 187.5 370.78 187.5 336.263C187.5 329.589 188.546 323.159 190.483 317.128C195.931 300.171 200.021 280.862 191.124 265.432L150.14 194.35C145.17 185.729 134.951 181.966 125 181.966C90.4822 181.966 62.5 153.984 62.5 119.466C62.5001 84.9481 90.4823 56.9658 125 56.9658C159.518 56.9658 187.5 84.9481 187.5 119.466C187.5 126.14 186.454 132.57 184.516 138.6C179.068 155.558 174.979 174.867 183.875 190.297L224.858 261.377C229.829 269.998 240.049 273.763 250 273.763C259.951 273.763 270.17 269.998 275.14 261.378L316.124 190.297C325.021 174.866 320.931 155.558 315.484 138.6C313.546 132.57 312.5 126.14 312.5 119.466C312.5 84.9482 340.482 56.9659 375 56.9658Z" fill="white"></path>
</svg></svg></g></g></svg></g></svg>