<svg width="448" height="448" viewBox="0 0 448 448" fill="none" xmlns="http://www.w3.org/2000/svg">
<path fill-rule="evenodd" clip-rule="evenodd" d="M232 176.657C232 168.025 238.341 160.885 244.88 155.25C251.689 149.382 256 140.694 256 131C256 113.327 241.673 99 224 99C206.327 99 192 113.327 192 131C192 140.759 196.369 149.498 203.258 155.368C209.747 160.897 216 167.951 216 176.476V176.476C216 190.938 200.276 199.917 187.82 192.568L181.176 188.648C176.876 186.11 175 180.993 175 176V176C175 158.327 160.673 144 143 144C125.327 144 111 158.327 111 176C111 193.673 125.327 208 143 208C146.396 208 149.668 207.471 152.739 206.491C161.542 203.682 171.599 201.574 179.558 206.271V206.271C192.673 214.009 192.673 232.991 179.558 240.73V240.73C171.599 245.426 161.543 243.318 152.739 240.509C149.668 239.529 146.396 239 143 239C125.327 239 111 253.327 111 271C111 288.673 125.327 303 143 303C160.673 303 175 288.673 175 271V271C175 266.008 176.876 260.89 181.176 258.353L187.224 254.784C199.943 247.279 216 256.449 216 271.217V271.217C216 279.923 209.597 287.123 203.025 292.832C196.271 298.699 192 307.351 192 317C192 334.673 206.327 349 224 349C241.673 349 256 334.673 256 317C256 307.416 251.787 298.816 245.111 292.951C238.491 287.135 232 279.848 232 271.036V271.036C232 256.087 248.254 246.805 261.129 254.402L266.512 257.579C271.063 260.264 273 265.715 273 271V271C273 288.673 287.327 303 305 303C322.673 303 337 288.673 337 271C337 253.327 322.673 239 305 239C301.646 239 298.412 239.516 295.373 240.473C286.756 243.188 276.944 245.156 269.162 240.565V240.565C256.169 232.898 256.17 214.102 269.162 206.435V206.435C276.944 201.844 286.756 203.812 295.374 206.527C298.412 207.484 301.646 208 305 208C322.673 208 337 193.673 337 176C337 158.327 322.673 144 305 144C287.327 144 273 158.327 273 176V176C273 181.285 271.063 186.736 266.512 189.422L260.532 192.95C247.921 200.392 232 191.3 232 176.657V176.657Z" fill="currentColor"/>
</svg>
