<svg width="448" height="448" viewBox="0 0 448 448" fill="none" xmlns="http://www.w3.org/2000/svg">
<path fill-rule="evenodd" clip-rule="evenodd" d="M208 128C208 128.517 207.988 129.032 207.963 129.543C207.531 138.66 208.081 148.767 214.535 155.221L244.779 185.465C251.233 191.919 261.34 192.469 270.457 192.037C270.968 192.012 271.483 192 272 192C289.673 192 304 206.327 304 224C304 241.673 289.673 256 272 256C271.483 256 270.968 255.988 270.457 255.963C261.34 255.531 251.233 256.081 244.779 262.535L214.535 292.779C208.081 299.233 207.531 309.34 207.963 318.457C207.988 318.968 208 319.483 208 320C208 337.673 193.673 352 176 352C158.327 352 144 337.673 144 320C144 302.327 158.327 288 176 288C176.517 288 177.032 288.012 177.543 288.037C186.66 288.469 196.767 287.919 203.221 281.465L233.465 251.221C239.919 244.767 240.469 234.66 240.037 225.543C240.012 225.032 240 224.517 240 224C240 223.483 240.012 222.968 240.037 222.457C240.469 213.34 239.919 203.233 233.465 196.779L203.221 166.535C196.767 160.081 186.66 159.531 177.543 159.963C177.032 159.988 176.517 160 176 160C158.327 160 144 145.673 144 128C144 110.327 158.327 96 176 96C193.673 96 208 110.327 208 128Z" fill="currentColor"/>
</svg>
