<svg width="448" height="448" viewBox="0 0 448 448" fill="none" xmlns="http://www.w3.org/2000/svg">
<path fill-rule="evenodd" clip-rule="evenodd" d="M144 176L144.022 176V176C152.847 176 160 183.153 160 191.978V256C160 264.837 152.837 272 144 272V272C126.327 272 112 286.327 112 304C112 321.673 126.327 336 144 336C161.673 336 176 321.673 176 304V304C176 295.163 183.163 288 192 288H256C264.837 288 272 295.163 272 304V304C272 321.673 286.327 336 304 336C321.673 336 336 321.673 336 304C336 286.327 321.673 272 304 272V272C295.163 272 288 264.837 288 256V192C288 183.163 295.163 176 304 176V176C321.673 176 336 161.673 336 144C336 126.327 321.673 112 304 112C286.327 112 272 126.327 272 144V144C272 152.837 264.837 160 256 160L192 160C183.163 160 176 152.837 176 144V144C176 126.327 161.673 112 144 112C126.327 112 112 126.327 112 144C112 161.673 126.327 176 144 176ZM252 272C263.046 272 272 263.046 272 252V196C272 184.954 263.046 176 252 176L196 176C184.954 176 176 184.954 176 196V252C176 263.046 184.954 272 196 272H252Z" fill="black"/>
</svg>
