<svg width="448" height="448" viewBox="0 0 448 448" fill="none" xmlns="http://www.w3.org/2000/svg">
<path fill-rule="evenodd" clip-rule="evenodd" d="M176 208C185.393 208 193.84 203.953 199.694 197.508C205.83 190.753 213.37 184 222.496 184H320.5C324.918 184 328.5 180.418 328.5 176C328.5 171.582 324.918 168 320.5 168H222.496C213.37 168 205.83 161.247 199.694 154.492C193.84 148.047 185.393 144 176 144C166.607 144 158.16 148.047 152.306 154.492C146.17 161.247 138.63 168 129.504 168H124C119.582 168 116 171.582 116 176C116 180.418 119.582 184 124 184H129.504C138.63 184 146.17 190.753 152.306 197.508C158.16 203.953 166.607 208 176 208ZM295.694 250.492C301.83 257.247 309.37 264 318.496 264H320.5C324.918 264 328.5 267.582 328.5 272C328.5 276.418 324.918 280 320.5 280H318.496C309.37 280 301.83 286.753 295.694 293.508C289.84 299.953 281.393 304 272 304C262.607 304 254.16 299.953 248.306 293.508C242.17 286.753 234.63 280 225.504 280H124C119.582 280 116 276.418 116 272C116 267.582 119.582 264 124 264H225.504C234.63 264 242.17 257.247 248.306 250.492C254.16 244.047 262.607 240 272 240C281.393 240 289.84 244.047 295.694 250.492Z" fill="currentColor"/>
</svg>
