<svg width="448" height="448" viewBox="0 0 448 448" fill="none" xmlns="http://www.w3.org/2000/svg">
<path fill-rule="evenodd" clip-rule="evenodd" d="M251.221 172.025C244.768 165.572 234.661 165.015 225.546 165.453C224.516 165.503 223.484 165.503 222.454 165.453C213.339 165.015 203.232 165.572 196.779 172.025L172.025 196.779C165.572 203.232 165.015 213.339 165.453 222.454C165.503 223.484 165.503 224.516 165.453 225.546C165.015 234.661 165.572 244.768 172.025 251.221L196.779 275.975C203.232 282.428 213.339 282.985 222.454 282.547C223.484 282.497 224.516 282.497 225.546 282.547C234.661 282.985 244.768 282.428 251.221 275.975L275.975 251.221C282.428 244.768 282.985 234.661 282.547 225.546C282.497 224.516 282.497 223.484 282.547 222.454C282.985 213.339 282.428 203.232 275.975 196.779L251.221 172.025ZM287.289 262.535C293.742 256.082 303.849 255.525 312.964 255.963C321.661 256.381 330.495 253.269 337.137 246.628C349.634 234.131 349.634 213.869 337.137 201.373C330.495 194.731 321.661 191.619 312.964 192.037C303.849 192.475 293.742 191.918 287.289 185.466L262.535 160.711C256.082 154.258 255.525 144.151 255.963 135.036C256.381 126.339 253.269 117.505 246.627 110.863C234.131 98.3662 213.869 98.3662 201.373 110.863C194.731 117.505 191.619 126.339 192.037 135.036C192.475 144.151 191.918 154.258 185.465 160.711L160.711 185.466C154.258 191.918 144.151 192.475 135.036 192.037C126.339 191.619 117.505 194.731 110.863 201.373C98.3661 213.869 98.3661 234.131 110.863 246.628C117.505 253.269 126.339 256.381 135.036 255.963C144.151 255.525 154.258 256.082 160.711 262.535L185.465 287.289C191.918 293.742 192.475 303.849 192.037 312.964C191.619 321.661 194.731 330.496 201.373 337.137C213.869 349.634 234.131 349.634 246.627 337.137C253.269 330.496 256.381 321.661 255.963 312.964C255.525 303.849 256.082 293.742 262.535 287.289L287.289 262.535Z" fill="black"/>
</svg>
