<svg width="448" height="448" viewBox="0 0 448 448" fill="none" xmlns="http://www.w3.org/2000/svg">
<path d="M176 144C176 161.673 161.673 176 144 176C126.327 176 112 161.673 112 144C112 126.327 126.327 112 144 112C161.673 112 176 126.327 176 144Z" fill="black"/>
<path d="M176 304C176 321.673 161.673 336 144 336C126.327 336 112 321.673 112 304C112 286.327 126.327 272 144 272C161.673 272 176 286.327 176 304Z" fill="black"/>
<path d="M336 144C336 161.673 321.673 176 304 176C286.327 176 272 161.673 272 144C272 126.327 286.327 112 304 112C321.673 112 336 126.327 336 144Z" fill="black"/>
<path d="M336 304C336 321.673 321.673 336 304 336C286.327 336 272 321.673 272 304C272 286.327 286.327 272 304 272C321.673 272 336 286.327 336 304Z" fill="black"/>
</svg>
