<svg width="448" height="448" viewBox="0 0 448 448" fill="none" xmlns="http://www.w3.org/2000/svg">
<path fill-rule="evenodd" clip-rule="evenodd" d="M256 128C256 145.673 241.673 160 224 160C223.323 160 222.65 159.979 221.983 159.937C212.65 159.357 202.228 159.766 195.616 166.378L158.633 203.361C156.549 205.445 156.237 208.644 157.403 211.351V211.351C158.541 213.992 161.002 216 163.878 216H273.504C282.63 216 290.17 209.247 296.306 202.492C302.16 196.047 310.607 192 320 192C337.673 192 352 206.327 352 224C352 241.673 337.673 256 320 256C319.383 256 318.769 255.983 318.16 255.948C308.908 255.424 298.605 255.886 292.052 262.439L262.439 292.052C255.886 298.605 255.424 308.908 255.948 318.16C255.983 318.769 256 319.383 256 320C256 337.673 241.673 352 224 352C206.327 352 192 337.673 192 320C192 302.327 206.327 288 224 288C224.919 288 225.829 288.039 226.729 288.115C236.396 288.931 247.317 288.758 254.177 281.898L289.562 246.513C291.989 244.086 292.26 240.33 290.843 237.204V237.204C289.509 234.264 286.751 232 283.523 232H174.496C165.37 232 157.83 238.753 151.694 245.508C145.84 251.953 137.393 256 128 256C110.327 256 96 241.673 96 224C96 206.327 110.327 192 128 192C128.862 192 129.716 192.034 130.56 192.101C140.148 192.86 150.948 192.629 157.748 185.829L185.829 157.748C192.629 150.948 192.86 140.148 192.101 130.56C192.034 129.716 192 128.862 192 128C192 110.327 206.327 96 224 96C241.673 96 256 110.327 256 128Z" fill="currentColor"/>
</svg>
