<?xml version="1.0" encoding="UTF-8"?>
<svg xmlns="http://www.w3.org/2000/svg" xmlns:xlink="http://www.w3.org/1999/xlink" width="0" height="0">
<defs>
<symbol fill="#000000" viewBox="0 0 256 256" id="alert">
  <path d="M236.8,188.09,149.35,36.22h0a24.76,24.76,0,0,0-42.7,0L19.2,188.09a23.51,23.51,0,0,0,0,23.72A24.35,24.35,0,0,0,40.55,224h174.9a24.35,24.35,0,0,0,21.33-12.19A23.51,23.51,0,0,0,236.8,188.09ZM120,104a8,8,0,0,1,16,0v40a8,8,0,0,1-16,0Zm8,88a12,12,0,1,1,12-12A12,12,0,0,1,128,192Z" fill="currentColor"></path>
</symbol>
<symbol viewBox="0 0 24 24" fill="none" stroke="currentColor" stroke-width="2" stroke-linecap="round" stroke-linejoin="round" class="lucide lucide-arrow-up-right" id="arrow-up-right"><path d="M7 7h10v10"></path><path d="M7 17 17 7"></path></symbol>
<symbol viewBox="0 0 24 24" fill="none" stroke="currentColor" stroke-width="2" stroke-linecap="round" stroke-linejoin="round" class="lucide lucide-asterisk" id="asterisk"><path d="M12 6v12"></path><path d="M17.196 9 6.804 15"></path><path d="m6.804 9 10.392 6"></path></symbol>
<symbol viewBox="0 0 24 24" fill="none" stroke="currentColor" stroke-width="2" stroke-linecap="round" stroke-linejoin="round" class="lucide lucide-check" id="check"><path d="M20 6 9 17l-5-5"></path></symbol>
<symbol viewBox="0 0 24 24" fill="none" stroke="currentColor" stroke-width="2" stroke-linecap="round" stroke-linejoin="round" class="lucide lucide-chevron-down" id="chevron-down"><path d="m6 9 6 6 6-6"></path></symbol>
<symbol viewBox="0 0 48 48" fill="none" id="client">
      <path d="M22.731 13.7525C22.1084 13.1299 22.0078 12.1772 22.1829 11.3143C22.2503 10.982 22.2857 10.6381 22.2857 10.2859C22.2857 7.4456 19.9832 5.14307 17.1429 5.14307C14.3025 5.14307 12 7.4456 12 10.2859C12 13.1262 14.3025 15.4288 17.1429 15.4288C17.4951 15.4288 17.8391 15.3934 18.1714 15.3259C19.0344 15.1507 19.9872 15.2513 20.6099 15.874L25.7932 21.0573C26.1045 21.3686 26.1658 21.844 26.0167 22.2583C25.821 22.8021 25.7144 23.3885 25.7144 23.9998C25.7144 24.6112 25.821 25.1977 26.0168 25.7416C26.1659 26.1559 26.1046 26.6313 25.7933 26.9426L20.6099 32.1261C19.9872 32.7487 19.0344 32.8494 18.1714 32.6742C17.8391 32.6067 17.4951 32.5713 17.1429 32.5713C14.3025 32.5713 12 34.8738 12 37.7141C12 40.5545 14.3025 42.857 17.1429 42.857C19.9832 42.857 22.2857 40.5545 22.2857 37.7141C22.2857 37.362 22.2503 37.0181 22.1829 36.6858C22.0078 35.8229 22.1084 34.8702 22.731 34.2476L27.3906 29.588C28.0133 28.9653 28.9659 28.8647 29.8289 29.0398C30.1612 29.1073 30.505 29.1426 30.8572 29.1426C33.6975 29.1426 36.0001 26.8401 36.0001 23.9998C36.0001 21.1595 33.6975 18.8569 30.8572 18.8569C30.505 18.8569 30.161 18.8923 29.8286 18.9598C28.9656 19.135 28.0129 19.0344 27.3902 18.4117L22.731 13.7525Z" fill="currentColor"></path>
    </symbol>
<symbol viewBox="0 0 16 16" fill="none" id="copy">
<g clip-path="url(#clip0_146_358)">
<path d="M12.75 5.75H6.75C6.19772 5.75 5.75 6.19772 5.75 6.75V12.75C5.75 13.3023 6.19772 13.75 6.75 13.75H12.75C13.3023 13.75 13.75 13.3023 13.75 12.75V6.75C13.75 6.19772 13.3023 5.75 12.75 5.75Z" stroke="currentColor" stroke-width="1.5" stroke-miterlimit="10"></path>
<path d="M10.75 4.25V3.75C10.75 3.2 10.3 2.75 9.75 2.75H3.75C3.2 2.75 2.75 3.2 2.75 3.75V9.75C2.75 10.3 3.2 10.75 3.75 10.75H4.25" stroke="currentColor" stroke-width="1.5" stroke-miterlimit="10"></path>
</g>
<defs>
<clipPath id="clip0_146_358">
<rect width="12.5" height="12.5" fill="white" transform="translate(2 2)"></rect>
</clipPath>
</defs>
</symbol>
<symbol viewBox="0 0 24 24" fill="none" id="discord">
<path d="M20.3303 4.22781C18.7767 3.50093 17.1156 2.97267 15.3789 2.67188C15.1656 3.05749 14.9164 3.57614 14.7446 3.98873C12.8985 3.71109 11.0693 3.71109 9.25716 3.98873C9.08539 3.57614 8.83055 3.05749 8.61536 2.67188C6.87681 2.97267 5.21376 3.50287 3.66019 4.23166C0.526643 8.96686 -0.322811 13.5845 0.101917 18.1365C2.18025 19.6885 4.19441 20.6313 6.17457 21.2483C6.66349 20.5754 7.09953 19.8601 7.47518 19.1063C6.75975 18.8344 6.07453 18.499 5.42707 18.1095C5.59884 17.9822 5.76686 17.8492 5.92918 17.7123C9.87819 19.5594 14.1689 19.5594 18.0707 17.7123C18.235 17.8492 18.403 17.9822 18.5728 18.1095C17.9235 18.5009 17.2364 18.8363 16.521 19.1082C16.8966 19.8601 17.3308 20.5774 17.8216 21.2502C19.8036 20.6333 21.8197 19.6905 23.898 18.1365C24.3964 12.8595 23.0467 8.28434 20.3303 4.22781ZM8.01318 15.337C6.82772 15.337 5.85555 14.2303 5.85555 12.8826C5.85555 11.535 6.80696 10.4264 8.01318 10.4264C9.21942 10.4264 10.1916 11.533 10.1708 12.8826C10.1727 14.2303 9.21942 15.337 8.01318 15.337ZM15.9867 15.337C14.8013 15.337 13.8291 14.2303 13.8291 12.8826C13.8291 11.535 14.7805 10.4264 15.9867 10.4264C17.193 10.4264 18.1651 11.533 18.1444 12.8826C18.1444 14.2303 17.193 15.337 15.9867 15.337Z" fill="currentColor"></path>
</symbol>
<symbol viewBox="0 0 16 16" fill="none" id="github">
  <path d="M8 0C3.58 0 0 3.58 0 8C0 11.54 2.29 14.53 5.47 15.59C5.87 15.66 6.02 15.42 6.02 15.21C6.02 15.02 6.01 14.39 6.01 13.72C4 14.09 3.48 13.23 3.32 12.78C3.23 12.55 2.84 11.84 2.5 11.65C2.22 11.5 1.82 11.13 2.49 11.12C3.12 11.11 3.57 11.7 3.72 11.94C4.44 13.15 5.59 12.81 6.05 12.6C6.12 12.08 6.33 11.73 6.56 11.53C4.78 11.33 2.92 10.64 2.92 7.58C2.92 6.71 3.23 5.99 3.74 5.43C3.66 5.23 3.38 4.41 3.82 3.31C3.82 3.31 4.49 3.1 6.02 4.13C6.66 3.95 7.34 3.86 8.02 3.86C8.7 3.86 9.38 3.95 10.02 4.13C11.55 3.09 12.22 3.31 12.22 3.31C12.66 4.41 12.38 5.23 12.3 5.43C12.81 5.99 13.12 6.7 13.12 7.58C13.12 10.65 11.25 11.33 9.47 11.53C9.76 11.78 10.01 12.26 10.01 13.01C10.01 14.08 10 14.94 10 15.21C10 15.42 10.15 15.67 10.55 15.59C13.71 14.53 16 11.53 16 8C16 3.58 12.42 0 8 0Z" fill="currentColor"></path>
</symbol>
<symbol viewBox="0 0 24 24" class="main-grid-item-icon" fill="none" id="linkedin">
  <path d="M5.372 24H.396V7.976h4.976V24ZM2.882 5.79C1.29 5.79 0 4.474 0 2.883a2.882 2.882 0 1 1 5.763 0c0 1.59-1.29 2.909-2.881 2.909ZM23.995 24H19.03v-7.8c0-1.86-.038-4.243-2.587-4.243-2.587 0-2.984 2.02-2.984 4.109V24H8.49V7.976h4.772v2.186h.07c.664-1.259 2.287-2.587 4.708-2.587 5.035 0 5.961 3.316 5.961 7.623V24h-.005Z" fill="currentColor"></path>
</symbol>
<symbol viewBox="0 0 32 32" fill="none" id="moon">
<path d="M26.9584 18.3976C26.2931 20.5697 24.96 22.4766 23.1485 23.8469C21.5581 25.0442 19.6656 25.7744 17.6834 25.9556C15.7011 26.1367 13.7076 25.7617 11.9266 24.8726C10.1456 23.9835 8.64762 22.6156 7.60075 20.9222C6.55387 19.2289 5.99957 17.2772 6.00005 15.2862C5.99289 12.9624 6.74818 10.7004 8.15004 8.84719C9.52009 7.03534 11.4265 5.70186 13.5981 5.03648C13.7413 4.9924 13.8937 4.98818 14.039 5.02428C14.1844 5.06037 14.3171 5.13541 14.423 5.24133C14.5289 5.34724 14.604 5.48003 14.64 5.62541C14.6761 5.77078 14.6719 5.92325 14.6278 6.0664C14.153 7.63747 14.1132 9.30797 14.5126 10.8999C14.9121 12.4918 15.7359 13.9455 16.8962 15.1061C18.0565 16.2666 19.5099 17.0906 21.1014 17.4901C22.693 17.8897 24.3631 17.8499 25.9338 17.3749C26.077 17.3308 26.2294 17.3266 26.3747 17.3627C26.5201 17.3988 26.6528 17.4738 26.7587 17.5798C26.8646 17.6857 26.9396 17.8185 26.9757 17.9638C27.0118 18.1092 27.0076 18.2617 26.9635 18.4048L26.9584 18.3976Z" fill="currentColor"></path>
</symbol>
<symbol viewBox="0 0 24 24" fill="none" stroke="currentColor" stroke-width="2" stroke-linecap="round" stroke-linejoin="round" class="lucide lucide-plus" id="plus"><path d="M5 12h14"></path><path d="M12 5v14"></path></symbol>
<symbol viewBox="0 0 48 48" fill="none" id="serverless-registry-self-host">
  <path fill-rule="evenodd" clip-rule="evenodd" d="M23.81 18.86C24.03 18.95 24.26 19 24.5 19C24.74 19 24.97 18.95 25.18 18.86C25.54 18.71 34 15.1 34 7.81C34 4.61 31.41 2 28.23 2C26.84 2 25.52 2.56 24.5 3.53C23.48 2.56 22.16 2 20.77 2C17.59 2 15 4.61 15 7.81C15 9.81044 15.6326 11.5323 16.5589 12.9813C17.127 13.8699 17.1084 15.0561 16.3627 15.8018L13.7528 18.4117C13.1301 19.0344 12.1774 19.135 11.3143 18.9598C10.982 18.8924 10.638 18.8569 10.2857 18.8569C7.44536 18.8569 5.14282 21.1595 5.14282 23.9998C5.14282 26.8401 7.44536 29.1426 10.2857 29.1426C12.0779 29.1426 13.656 28.2259 14.5767 26.8357C15.0626 26.1018 15.8078 25.5 16.688 25.5H32.2961C32.5917 25.5 32.8492 25.6972 32.9625 25.9703V25.9703C33.076 26.2434 33.0316 26.5613 32.8224 26.7705L27.4669 32.126C26.8442 32.7487 25.8915 32.8493 25.0285 32.6741C24.6962 32.6067 24.3523 32.5713 24 32.5713C21.1597 32.5713 18.8572 34.8738 18.8572 37.7141C18.8572 40.5545 21.1597 42.857 24 42.857C26.8404 42.857 29.1429 40.5545 29.1429 37.7141C29.1429 37.3619 29.1075 37.018 29.04 36.6857C28.8649 35.8227 28.9655 34.87 29.5882 34.2474L34.2476 29.5879C34.8703 28.9653 35.823 28.8646 36.6859 29.0398C37.0182 29.1072 37.3622 29.1426 37.7144 29.1426C40.5547 29.1426 42.8572 26.8401 42.8572 23.9998C42.8572 21.1595 40.5547 18.8569 37.7144 18.8569C35.922 18.8569 34.3438 19.7738 33.4232 21.1642C32.9373 21.8981 32.1921 22.5 31.3118 22.5H15.7042C15.4085 22.5 15.151 22.3028 15.0377 22.0296V22.0296C14.9243 21.7564 14.9686 21.4386 15.1778 21.2294L18.6422 17.765C19.3537 17.0534 20.4786 16.9907 21.3281 17.5301C22.6557 18.3731 23.6953 18.8128 23.81 18.86ZM18 7.81C18 6.26 19.24 5 20.77 5C21.75 5 22.64 5.63 23.15 6.69C23.4 7.21 23.92 7.54 24.5 7.54C25.07 7.54 25.6 7.21 25.85 6.69C26.36 5.63 27.25 5 28.23 5C29.76 5 31 6.26 31 7.81C31 12.29 26.08 15.09 24.5 15.87C22.93 15.1 18 12.31 18 7.81Z" fill="currentColor"></path>
</symbol>
<symbol viewBox="0 0 48 48" fill="none" id="serverless-registry">
      <path d="M29.1429 10.2859C29.1429 13.1262 26.8404 15.4288 24 15.4288C23.6478 15.4288 23.3038 15.3934 22.9714 15.3259C22.1084 15.1507 21.1557 15.2513 20.533 15.874L15.1778 21.2292C14.9686 21.4384 14.9242 21.7563 15.0376 22.0296V22.0296C15.151 22.3028 15.4086 22.5 15.7043 22.5H31.3118C32.1921 22.5 32.9373 21.8981 33.4232 21.1642C34.3438 19.7738 35.922 18.8569 37.7144 18.8569C40.5547 18.8569 42.8572 21.1595 42.8572 23.9998C42.8572 26.8401 40.5547 29.1426 37.7144 29.1426C37.3622 29.1426 37.0183 29.1072 36.686 29.0398C35.823 28.8647 34.8703 28.9653 34.2476 29.5879L29.5882 34.2474C28.9655 34.87 28.8649 35.8228 29.04 36.6857C29.1075 37.018 29.1429 37.3619 29.1429 37.7141C29.1429 40.5545 26.8404 42.857 24 42.857C21.1597 42.857 18.8572 40.5545 18.8572 37.7141C18.8572 34.8738 21.1597 32.5713 24 32.5713C24.3523 32.5713 24.6962 32.6067 25.0285 32.6741C25.8915 32.8493 26.8442 32.7487 27.4669 32.126L32.8224 26.7705C33.0316 26.5613 33.076 26.2435 32.9626 25.9703V25.9703C32.8492 25.6972 32.5918 25.5 32.2961 25.5H16.6879C15.8078 25.5 15.0626 26.1019 14.5766 26.8357C13.656 28.2259 12.0779 29.1426 10.2857 29.1426C7.44536 29.1426 5.14282 26.8401 5.14282 23.9998C5.14282 21.1595 7.44536 18.8569 10.2857 18.8569C10.6379 18.8569 10.9819 18.8923 11.3142 18.9598C12.1772 19.135 13.13 19.0344 13.7526 18.4117L18.4119 13.7525C19.0345 13.1299 19.1351 12.1772 18.96 11.3142C18.8926 10.982 18.8572 10.6381 18.8572 10.2859C18.8572 7.4456 21.1597 5.14307 24 5.14307C26.8404 5.14307 29.1429 7.4456 29.1429 10.2859Z" fill="currentColor"></path>
    </symbol>
<symbol viewBox="0 0 32 32" fill="none" id="sun">
<path d="M15 5V2C15 1.73478 15.1054 1.48043 15.2929 1.29289C15.4804 1.10536 15.7348 1 16 1C16.2652 1 16.5196 1.10536 16.7071 1.29289C16.8946 1.48043 17 1.73478 17 2V5C17 5.26522 16.8946 5.51957 16.7071 5.70711C16.5196 5.89464 16.2652 6 16 6C15.7348 6 15.4804 5.89464 15.2929 5.70711C15.1054 5.51957 15 5.26522 15 5ZM16 8C14.4177 8 12.871 8.46919 11.5554 9.34824C10.2398 10.2273 9.21447 11.4767 8.60896 12.9385C8.00346 14.4003 7.84504 16.0089 8.15372 17.5607C8.4624 19.1126 9.22433 20.538 10.3431 21.6569C11.462 22.7757 12.8874 23.5376 14.4393 23.8463C15.9911 24.155 17.5997 23.9965 19.0615 23.391C20.5233 22.7855 21.7727 21.7602 22.6518 20.4446C23.5308 19.129 24 17.5823 24 16C23.9977 13.879 23.1541 11.8455 21.6543 10.3457C20.1545 8.84591 18.121 8.00232 16 8ZM7.2925 8.7075C7.48014 8.89514 7.73464 9.00056 8 9.00056C8.26536 9.00056 8.51986 8.89514 8.7075 8.7075C8.89514 8.51986 9.00056 8.26536 9.00056 8C9.00056 7.73464 8.89514 7.48014 8.7075 7.2925L6.7075 5.2925C6.51986 5.10486 6.26536 4.99944 6 4.99944C5.73464 4.99944 5.48014 5.10486 5.2925 5.2925C5.10486 5.48014 4.99944 5.73464 4.99944 6C4.99944 6.26536 5.10486 6.51986 5.2925 6.7075L7.2925 8.7075ZM7.2925 23.2925L5.2925 25.2925C5.10486 25.4801 4.99944 25.7346 4.99944 26C4.99944 26.2654 5.10486 26.5199 5.2925 26.7075C5.48014 26.8951 5.73464 27.0006 6 27.0006C6.26536 27.0006 6.51986 26.8951 6.7075 26.7075L8.7075 24.7075C8.80041 24.6146 8.87411 24.5043 8.92439 24.3829C8.97468 24.2615 9.00056 24.1314 9.00056 24C9.00056 23.8686 8.97468 23.7385 8.92439 23.6171C8.87411 23.4957 8.80041 23.3854 8.7075 23.2925C8.61459 23.1996 8.50429 23.1259 8.3829 23.0756C8.2615 23.0253 8.13139 22.9994 8 22.9994C7.86861 22.9994 7.7385 23.0253 7.6171 23.0756C7.49571 23.1259 7.38541 23.1996 7.2925 23.2925ZM24 9C24.1314 9.0001 24.2615 8.97432 24.3829 8.92414C24.5042 8.87395 24.6146 8.80033 24.7075 8.7075L26.7075 6.7075C26.8951 6.51986 27.0006 6.26536 27.0006 6C27.0006 5.73464 26.8951 5.48014 26.7075 5.2925C26.5199 5.10486 26.2654 4.99944 26 4.99944C25.7346 4.99944 25.4801 5.10486 25.2925 5.2925L23.2925 7.2925C23.1525 7.43236 23.0571 7.61061 23.0185 7.80469C22.9798 7.99878 22.9996 8.19997 23.0754 8.38279C23.1511 8.56561 23.2794 8.72185 23.444 8.83172C23.6086 8.94159 23.8021 9.00016 24 9ZM24.7075 23.2925C24.5199 23.1049 24.2654 22.9994 24 22.9994C23.7346 22.9994 23.4801 23.1049 23.2925 23.2925C23.1049 23.4801 22.9994 23.7346 22.9994 24C22.9994 24.2654 23.1049 24.5199 23.2925 24.7075L25.2925 26.7075C25.3854 26.8004 25.4957 26.8741 25.6171 26.9244C25.7385 26.9747 25.8686 27.0006 26 27.0006C26.1314 27.0006 26.2615 26.9747 26.3829 26.9244C26.5043 26.8741 26.6146 26.8004 26.7075 26.7075C26.8004 26.6146 26.8741 26.5043 26.9244 26.3829C26.9747 26.2615 27.0006 26.1314 27.0006 26C27.0006 25.8686 26.9747 25.7385 26.9244 25.6171C26.8741 25.4957 26.8004 25.3854 26.7075 25.2925L24.7075 23.2925ZM6 16C6 15.7348 5.89464 15.4804 5.70711 15.2929C5.51957 15.1054 5.26522 15 5 15H2C1.73478 15 1.48043 15.1054 1.29289 15.2929C1.10536 15.4804 1 15.7348 1 16C1 16.2652 1.10536 16.5196 1.29289 16.7071C1.48043 16.8946 1.73478 17 2 17H5C5.26522 17 5.51957 16.8946 5.70711 16.7071C5.89464 16.5196 6 16.2652 6 16ZM16 26C15.7348 26 15.4804 26.1054 15.2929 26.2929C15.1054 26.4804 15 26.7348 15 27V30C15 30.2652 15.1054 30.5196 15.2929 30.7071C15.4804 30.8946 15.7348 31 16 31C16.2652 31 16.5196 30.8946 16.7071 30.7071C16.8946 30.5196 17 30.2652 17 30V27C17 26.7348 16.8946 26.4804 16.7071 26.2929C16.5196 26.1054 16.2652 26 16 26ZM30 15H27C26.7348 15 26.4804 15.1054 26.2929 15.2929C26.1054 15.4804 26 15.7348 26 16C26 16.2652 26.1054 16.5196 26.2929 16.7071C26.4804 16.8946 26.7348 17 27 17H30C30.2652 17 30.5196 16.8946 30.7071 16.7071C30.8946 16.5196 31 16.2652 31 16C31 15.7348 30.8946 15.4804 30.7071 15.2929C30.5196 15.1054 30.2652 15 30 15Z" fill="currentColor"></path>
</symbol>
<symbol fill="white" class="bi bi-twitter-x" viewBox="0 0 16 16" id="twitter-x">
  <path d="M12.6.75h2.454l-5.36 6.142L16 15.25h-4.937l-3.867-5.07-4.425 5.07H.316l5.733-6.57L0 .75h5.063l3.495 4.633L12.601.75Zm-.86 13.028h1.36L4.323 2.145H2.865z" fill="currentColor"></path>
</symbol>
<symbol viewBox="0 0 24 24" fill="none" id="vlt-v">
<path   d="M8.35447 8.85935C8.75869 8.34819 9 7.70227 9 7C9 5.34315 7.65685 4 6 4C4.34315 4 3 5.34315 3 7C3 8.65685 4.34315 10 6 10C6.22763 10 6.44933 9.97465 6.66245 9.92661L9.72976 15.0388C9.27505 15.5647 9 16.2502 9 17C9 18.6569 10.3431 20 12 20C13.6569 20 15 18.6569 15 17C15 16.2502 14.7249 15.5646 14.2701 15.0387L17.3374 9.92657C17.5505 9.97463 17.7723 10 18 10C19.6569 10 21 8.65685 21 7C21 5.34315 19.6569 4 18 4C16.3431 4 15 5.34315 15 7C15 7.7022 15.2413 8.34806 15.6454 8.8592L12.5326 14.0471C12.3598 14.0162 12.1818 14 12 14C11.8182 14 11.6401 14.0162 11.4672 14.0472L8.35447 8.85935Z"
  class="fill-[var(--inner)]"
></path>
<path   d="M10.1009 8.85453C10.3571 8.28855 10.5 7.66014 10.5 7C10.5 4.51472 8.48528 2.5 6 2.5C3.51472 2.5 1.5 4.51472 1.5 7C1.5 9.43705 3.43727 11.4216 5.85584 11.4977L7.96321 15.01C7.66687 15.6103 7.5 16.2864 7.5 17C7.5 19.4853 9.51472 21.5 12 21.5C14.4853 21.5 16.5 19.4853 16.5 17C16.5 16.2864 16.3331 15.6102 16.0367 15.0098L18.1439 11.4977C20.5626 11.4217 22.5 9.43712 22.5 7C22.5 4.51472 20.4853 2.5 18 2.5C15.5147 2.5 13.5 4.51472 13.5 7C13.5 7.66006 13.6428 8.2884 13.899 8.85433L11.9999 12.0196L10.1009 8.85453ZM11.4672 14.0472L8.35447 8.85935C8.75869 8.34819 9 7.70227 9 7C9 5.34315 7.65685 4 6 4C4.34315 4 3 5.34315 3 7C3 8.65685 4.34315 10 6 10C6.22763 10 6.44933 9.97465 6.66245 9.92661L9.72976 15.0388C9.27505 15.5647 9 16.2502 9 17C9 18.6569 10.3431 20 12 20C13.6569 20 15 18.6569 15 17C15 16.2502 14.7249 15.5646 14.2701 15.0387L17.3374 9.92657C17.5505 9.97463 17.7723 10 18 10C19.6569 10 21 8.65685 21 7C21 5.34315 19.6569 4 18 4C16.3431 4 15 5.34315 15 7C15 7.7022 15.2413 8.34806 15.6454 8.8592L12.5326 14.0471C12.3598 14.0162 12.1818 14 12 14C11.8182 14 11.6401 14.0162 11.4672 14.0472Z"
  class="fill-[var(--outer)]"
></path>
</symbol>
<symbol viewBox="0 0 24 24" fill="none" stroke="currentColor" stroke-width="2" stroke-linecap="round" stroke-linejoin="round" class="lucide lucide-x" id="x"><path d="M18 6 6 18"></path><path d="m6 6 12 12"></path></symbol>
</defs>
</svg>